<svg xmlns="http://www.w3.org/2000/svg" width="18" height="18" fill="none"><g clip-path="url(#a)"><path fill="#F6EDFF" d="M9 3.375C5.25 3.375 2.047 5.707.75 9c1.297 3.293 4.5 5.625 8.25 5.625S15.953 12.293 17.25 9C15.953 5.707 12.75 3.375 9 3.375Zm0 9.375c-2.07 0-3.75-1.68-3.75-3.75 0-2.07 1.68-3.75 3.75-3.75 2.07 0 3.75 1.68 3.75 3.75 0 2.07-1.68 3.75-3.75 3.75Zm0-6A2.247 2.247 0 0 0 6.75 9 2.247 2.247 0 0 0 9 11.25 2.247 2.247 0 0 0 11.25 9 2.247 2.247 0 0 0 9 6.75Z"/></g><defs><clipPath id="a"><path fill="#fff" d="M0 0h18v18H0z"/></clipPath></defs></svg>