<?xml version="1.0" encoding="utf-8"?>
<svg xmlns="http://www.w3.org/2000/svg" width="0" height="0">
<symbol id="arrow_down" viewBox="0 0 18 18"><path d="M5.25 7.5 9 11.25l3.75-3.75h-7.5Z"/>
</symbol>
<symbol id="arrow__left" viewBox="0 0 24 24"><g clip-path="url(#a)"><path d="m14 6 1.41 1.41L10.83 12l4.58 4.59L14 18l-6-6 6-6Z"/></g><defs><clipPath id="a"><path d="M24 0H0v24h24z"/></clipPath></defs>
</symbol>
<symbol id="arrow__right" viewBox="0 0 24 24"><g clip-path="url(#a)"><path d="M10 6 8.59 7.41 13.17 12l-4.58 4.59L10 18l6-6-6-6Z"/></g><defs><clipPath id="a"><path d="M0 0h24v24H0z"/></clipPath></defs>
</symbol>
<symbol id="bell" viewBox="0 0 24 24"><g clip-path="url(#a)"><path d="M12 22c1.1 0 2-.9 2-2h-4c0 1.1.9 2 2 2Zm6-6v-5c0-3.07-1.63-5.64-4.5-6.32V4c0-.83-.67-1.5-1.5-1.5s-1.5.67-1.5 1.5v.68C7.64 5.36 6 7.92 6 11v5l-2 2v1h16v-1l-2-2Zm-2 1H8v-6c0-2.48 1.51-4.5 4-4.5s4 2.02 4 4.5v6Z"/></g><defs><clipPath id="a"><path d="M0 0h24v24H0z"/></clipPath></defs>
</symbol>
<symbol id="eye" viewBox="0 0 18 18"><g clip-path="url(#a)"><path d="M9 3.375C5.25 3.375 2.047 5.707.75 9c1.297 3.293 4.5 5.625 8.25 5.625S15.953 12.293 17.25 9C15.953 5.707 12.75 3.375 9 3.375Zm0 9.375c-2.07 0-3.75-1.68-3.75-3.75 0-2.07 1.68-3.75 3.75-3.75 2.07 0 3.75 1.68 3.75 3.75 0 2.07-1.68 3.75-3.75 3.75Zm0-6A2.247 2.247 0 0 0 6.75 9 2.247 2.247 0 0 0 9 11.25 2.247 2.247 0 0 0 11.25 9 2.247 2.247 0 0 0 9 6.75Z"/></g><defs><clipPath id="a"><path d="M0 0h18v18H0z"/></clipPath></defs>
</symbol>
<symbol id="heart" viewBox="0 0 18 18"><g clip-path="url(#a)"><path d="m9 16.012-1.088-.99C4.05 11.52 1.5 9.21 1.5 6.376A4.085 4.085 0 0 1 5.625 2.25c1.305 0 2.557.607 3.375 1.567a4.491 4.491 0 0 1 3.375-1.567A4.085 4.085 0 0 1 16.5 6.375c0 2.835-2.55 5.145-6.412 8.655L9 16.012Z"/></g><defs><clipPath id="a"><path d="M0 0h18v18H0z"/></clipPath></defs>
</symbol>
<symbol id="magnificant" viewBox="0 0 24 24"><g clip-path="url(#a)"><path d="M15.5 14h-.79l-.28-.27A6.471 6.471 0 0 0 16 9.5 6.5 6.5 0 1 0 9.5 16c1.61 0 3.09-.59 4.23-1.57l.27.28v.79l5 4.99L20.49 19l-4.99-5Zm-6 0C7.01 14 5 11.99 5 9.5S7.01 5 9.5 5 14 7.01 14 9.5 11.99 14 9.5 14Z"/></g><defs><clipPath id="a"><path d="M0 0h24v24H0z"/></clipPath></defs>
</symbol>
<symbol id="menu" viewBox="0 0 24 24"><g clip-path="url(#a)"><path d="M10 18h4v-2h-4v2ZM3 6v2h18V6H3Zm3 7h12v-2H6v2Z"/></g><defs><clipPath id="a"><path d="M0 0h24v24H0z"/></clipPath></defs>
</symbol>
<symbol id="play" viewBox="0 0 18 18"><g clip-path="url(#a)"><path d="M9 1.5C4.86 1.5 1.5 4.86 1.5 9c0 4.14 3.36 7.5 7.5 7.5 4.14 0 7.5-3.36 7.5-7.5 0-4.14-3.36-7.5-7.5-7.5ZM7.5 12.375v-6.75L12 9l-4.5 3.375Z"/></g><defs><clipPath id="a"><path d="M0 0h18v18H0z"/></clipPath></defs>
</symbol>
<symbol id="plus" viewBox="0 0 18 18"><path d="M15 9.75H9.75V15h-1.5V9.75H3v-1.5h5.25V3h1.5v5.25H15v1.5Z"/>
</symbol>
<symbol id="rectangle" viewBox="0 0 24 24"><g clip-path="url(#a)"><path d="M5 15H3v4c0 1.1.9 2 2 2h4v-2H5v-4ZM5 5h4V3H5c-1.1 0-2 .9-2 2v4h2V5Zm7 3c-2.21 0-4 1.79-4 4s1.79 4 4 4 4-1.79 4-4-1.79-4-4-4Zm0 6c-1.1 0-2-.9-2-2s.9-2 2-2 2 .9 2 2-.9 2-2 2Zm7-11h-4v2h4v4h2V5c0-1.1-.9-2-2-2Zm0 16h-4v2h4c1.1 0 2-.9 2-2v-4h-2v4Z"/></g><defs><clipPath id="a"><path d="M0 0h24v24H0z"/></clipPath></defs>
</symbol>
<symbol id="darkmode" viewBox="0 0 24 24"><g clip-path="url(#a)"><path d="M14 2c1.82 0 3.53.5 5 1.35-2.99 1.73-5 4.95-5 8.65s2.01 6.92 5 8.65A9.973 9.973 0 0 1 14 22C8.48 22 4 17.52 4 12S8.48 2 14 2Z"/></g><defs><clipPath id="a"><path d="M0 0h24v24H0z"/></clipPath></defs>
</symbol>
<symbol id="lightmode" viewBox="0 0 24 24"><g clip-path="url(#a)"><path d="M12 7c-2.76 0-5 2.24-5 5s2.24 5 5 5 5-2.24 5-5-2.24-5-5-5ZM2 13h2c.55 0 1-.45 1-1s-.45-1-1-1H2c-.55 0-1 .45-1 1s.45 1 1 1Zm18 0h2c.55 0 1-.45 1-1s-.45-1-1-1h-2c-.55 0-1 .45-1 1s.45 1 1 1ZM11 2v2c0 .55.45 1 1 1s1-.45 1-1V2c0-.55-.45-1-1-1s-1 .45-1 1Zm0 18v2c0 .55.45 1 1 1s1-.45 1-1v-2c0-.55-.45-1-1-1s-1 .45-1 1ZM5.99 4.58a.996.996 0 0 0-1.41 0 .996.996 0 0 0 0 1.41l1.06 1.06c.39.39 1.03.39 1.41 0 .38-.39.39-1.03 0-1.41L5.99 4.58Zm12.37 12.37a.996.996 0 0 0-1.41 0 .996.996 0 0 0 0 1.41l1.06 1.06c.39.39 1.03.39 1.41 0a.996.996 0 0 0 0-1.41l-1.06-1.06Zm1.06-10.96a.996.996 0 0 0 0-1.41.996.996 0 0 0-1.41 0l-1.06 1.06a.996.996 0 0 0 0 1.41c.39.38 1.03.39 1.41 0l1.06-1.06ZM7.05 18.36a.996.996 0 0 0 0-1.41.996.996 0 0 0-1.41 0l-1.06 1.06a.996.996 0 0 0 0 1.41c.39.38 1.03.39 1.41 0l1.06-1.06Z"/></g><defs><clipPath id="a"><path d="M0 0h24v24H0z"/></clipPath></defs>
</symbol>
<symbol id="minus_map" viewBox="0 0 24 24"><g clip-path="url(#a)"><path d="M19 13H5v-2h14v2Z"/></g><defs><clipPath id="a"><path d="M0 0h24v24H0z"/></clipPath></defs>
</symbol>
<symbol id="my_location" viewBox="0 0 24 24"><g clip-path="url(#a)"><path d="M12 8c-2.21 0-4 1.79-4 4s1.79 4 4 4 4-1.79 4-4-1.79-4-4-4Zm8.94 3A8.994 8.994 0 0 0 13 3.06V1h-2v2.06A8.994 8.994 0 0 0 3.06 11H1v2h2.06A8.994 8.994 0 0 0 11 20.94V23h2v-2.06A8.994 8.994 0 0 0 20.94 13H23v-2h-2.06ZM12 19c-3.87 0-7-3.13-7-7s3.13-7 7-7 7 3.13 7 7-3.13 7-7 7Z"/></g><defs><clipPath id="a"><path d="M0 0h24v24H0z"/></clipPath></defs>
</symbol>
<symbol id="plus_map" viewBox="0 0 24 24"><g clip-path="url(#a)"><path d="M19 13h-6v6h-2v-6H5v-2h6V5h2v6h6v2Z"/></g><defs><clipPath id="a"><path d="M0 0h24v24H0z"/></clipPath></defs>
</symbol>
<symbol id="travel_explore" viewBox="0 0 24 24"><g clip-path="url(#a)"><path d="M19.3 16.9c.4-.7.7-1.5.7-2.4 0-2.5-2-4.5-4.5-4.5S11 12 11 14.5s2 4.5 4.5 4.5c.9 0 1.7-.3 2.4-.7l3.2 3.2 1.4-1.4-3.2-3.2Zm-3.8.1c-1.4 0-2.5-1.1-2.5-2.5s1.1-2.5 2.5-2.5 2.5 1.1 2.5 2.5-1.1 2.5-2.5 2.5ZM12 20v2C6.48 22 2 17.52 2 12S6.48 2 12 2c4.84 0 8.87 3.44 9.8 8h-2.07A8 8 0 0 0 15 4.59V5c0 1.1-.9 2-2 2h-2v2c0 .55-.45 1-1 1H8v2h2v3H9l-4.79-4.79C4.08 10.79 4 11.38 4 12c0 4.41 3.59 8 8 8Z"/></g><defs><clipPath id="a"><path d="M0 0h24v24H0z"/></clipPath></defs>
</symbol>
</svg>